# xmcd
#
# Track frame offsets:
# 150
# 16427
# 35872
# 47515
# 62169
# 80422
# 92234
# 106373
# 123179
# 134036
# 146670
# 159208
#
# Disc length: 2386 seconds
#
#
# Revision: 0
# Processed by: cddbd v1.5.2PL0 Copyright (c) Steve Scherf et al.
# Submitted via: FreeRIP 2.51 
#
DISCID=a409500c
DTITLE=Amy Winehouse - Back to Black
DYEAR=2007
DGENRE=Soul
TTITLE0=Rehab
TTITLE1=You Know I'm Good
TTITLE2=Me and Mr. Jones
TTITLE3=Just Friends
TTITLE4=Back to Black
TTITLE5=Love is a Losing Game
TTITLE6=Tears Dry on Their Own
TTITLE7=Wake Up Alone
TTITLE8=Some Unholy War
TTITLE9=He Can Only Hold Her
TTITLE10=Addicted
TTITLE11=You Know I'm No Good (Remix)
EXTD=
EXTT0=
EXTT1=
EXTT2=
EXTT3=
EXTT4=
EXTT5=
EXTT6=
EXTT7=
EXTT8=
EXTT9=
EXTT10=
EXTT11=feat. Ghostface Killah
PLAYORDER=
